Ayanna-latin-1.ufo
<glyph name="comma" format="1">
  <advance width="232"/>
  <unicode hex="002C"/>
  <outline>
    <contour>
      <point x="151" y="-92"/>
      <point x="199" y="-1"/>
      <point x="199" y="66" type="curve" smooth="yes"/>
      <point x="199" y="130"/>
      <point x="156" y="162"/>
      <point x="112" y="162" type="curve" smooth="yes"/>
      <point x="70" y="162"/>
      <point x="28" y="131"/>
      <point x="28" y="71" type="curve" smooth="yes"/>
      <point x="28" y="37"/>
      <point x="47" y="3"/>
      <point x="87" y="-7" type="curve"/>
      <point x="81" y="-33"/>
      <point x="44" y="-107"/>
      <point x="30" y="-131" type="curve"/>
      <point x="82" y="-164" type="line"/>
    </contour>
  </outline>
</glyph>
<glyph name="three" format="1">
  <advance width="464"/>
  <unicode hex="0033"/>
  <outline>
    <contour>
      <point x="138" y="-150"/>
      <point x="205" y="-150" type="curve" smooth="yes"/>
      <point x="324" y="-150"/>
      <point x="429" y="-77"/>
      <point x="429" y="62" type="curve" smooth="yes"/>
      <point x="429" y="152"/>
      <point x="361" y="238"/>
      <point x="218" y="238" type="curve"/>
      <point x="219" y="211" type="line"/>
      <point x="344" y="211"/>
      <point x="407" y="297"/>
      <point x="407" y="381" type="curve" smooth="yes"/>
      <point x="407" y="494"/>
      <point x="313" y="555"/>
      <point x="212" y="555" type="curve" smooth="yes"/>
      <point x="140" y="555"/>
      <point x="66" y="522"/>
      <point x="25" y="448" type="curve"/>
      <point x="117" y="390" type="line"/>
      <point x="140" y="427"/>
      <point x="172" y="445"/>
      <point x="202" y="445" type="curve" smooth="yes"/>
      <point x="241" y="445"/>
      <point x="275" y="415"/>
      <point x="275" y="360" type="curve" smooth="yes"/>
      <point x="275" y="309"/>
      <point x="246" y="264"/>
      <point x="165" y="264" type="curve" smooth="yes"/>
      <point x="128" y="264" type="line"/>
      <point x="128" y="162" type="line"/>
      <point x="180" y="162" type="line" smooth="yes"/>
      <point x="259" y="162"/>
      <point x="296" y="112"/>
      <point x="296" y="60" type="curve" smooth="yes"/>
      <point x="296" y="-6"/>
      <point x="253" y="-35"/>
      <point x="200" y="-35" type="curve" smooth="yes"/>
      <point x="159" y="-35"/>
      <point x="113" y="-19"/>
      <point x="76" y="11" type="curve"/>
      <point x="7" y="-80" type="line"/>
      <point x="67" y="-127"/>
    </contour>
  </outline>
</glyph>
<glyph name="H" format="1">
  <advance width="605"/>
  <unicode hex="0048"/>
  <outline>
    <contour>
      <point x="413" y="383" type="line"/>
      <point x="433" y="403" type="line"/>
      <point x="172" y="403" type="line"/>
      <point x="192" y="383" type="line"/>
      <point x="192" y="675" type="line"/>
      <point x="60" y="675" type="line"/>
      <point x="60" y="0" type="line"/>
      <point x="192" y="0" type="line"/>
      <point x="192" y="313" type="line"/>
      <point x="172" y="293" type="line"/>
      <point x="433" y="293" type="line"/>
      <point x="413" y="313" type="line"/>
      <point x="413" y="0" type="line"/>
      <point x="545" y="0" type="line"/>
      <point x="545" y="675" type="line"/>
      <point x="413" y="675" type="line"/>
    </contour>
  </outline>
</glyph>
<glyph name="I" format="1">
  <advance width="252"/>
  <unicode hex="0049"/>
  <outline>
    <contour>
      <point x="60" y="675" type="line"/>
      <point x="60" y="0" type="line"/>
      <point x="192" y="0" type="line"/>
      <point x="192" y="675" type="line"/>
    </contour>
    <contour>
      <point x="192" y="10" type="move" name="ogonek"/>
    </contour>
    <contour>
      <point x="126" y="660" type="move" name="top"/>
    </contour>
  </outline>
</glyph>
<glyph name="K" format="1">
  <advance width="558"/>
  <unicode hex="004B"/>
  <outline>
    <contour>
      <point x="553" y="90" type="line"/>
      <point x="533" y="88"/>
      <point x="511" y="90"/>
      <point x="496" y="122" type="curve" smooth="yes"/>
      <point x="374" y="386" type="line"/>
      <point x="374" y="332" type="line"/>
      <point x="545" y="675" type="line"/>
      <point x="413" y="675" type="line"/>
      <point x="280" y="394" type="line"/>
      <point x="316" y="408" type="line"/>
      <point x="172" y="408" type="line"/>
      <point x="192" y="388" type="line"/>
      <point x="192" y="675" type="line"/>
      <point x="60" y="675" type="line"/>
      <point x="60" y="0" type="line"/>
      <point x="192" y="0" type="line"/>
      <point x="192" y="318" type="line"/>
      <point x="172" y="298" type="line"/>
      <point x="314" y="298" type="line"/>
      <point x="273" y="318" type="line"/>
      <point x="381" y="71" type="line" smooth="yes"/>
      <point x="406" y="13"/>
      <point x="443" y="-15"/>
      <point x="500" y="-15" type="curve" smooth="yes"/>
      <point x="517" y="-15"/>
      <point x="537" y="-12"/>
      <point x="558" y="-7" type="curve"/>
    </contour>
  </outline>
</glyph>
<glyph name="O" format="1">
  <advance width="622"/>
  <unicode hex="004F"/>
  <outline>
    <contour>
      <point x="500" y="-15"/>
      <point x="590" y="137"/>
      <point x="590" y="336" type="curve" smooth="yes"/>
      <point x="590" y="540"/>
      <point x="503" y="690"/>
      <point x="313" y="690" type="curve" smooth="yes"/>
      <point x="125" y="690"/>
      <point x="32" y="534"/>
      <point x="32" y="335" type="curve" smooth="yes"/>
      <point x="32" y="133"/>
      <point x="121" y="-15"/>
      <point x="311" y="-15" type="curve" smooth="yes"/>
    </contour>
    <contour>
      <point x="211" y="100"/>
      <point x="172" y="205"/>
      <point x="172" y="336" type="curve" smooth="yes"/>
      <point x="172" y="465"/>
      <point x="213" y="575"/>
      <point x="313" y="575" type="curve" smooth="yes"/>
      <point x="411" y="575"/>
      <point x="450" y="469"/>
      <point x="450" y="335" type="curve" smooth="yes"/>
      <point x="450" y="207"/>
      <point x="410" y="100"/>
      <point x="311" y="100" type="curve" smooth="yes"/>
    </contour>
    <contour>
      <point x="313" y="655" type="move" name="top"/>
    </contour>
  </outline>
</glyph>
<glyph name="R" format="1">
  <advance width="540"/>
  <unicode hex="0052"/>
  <outline>
    <contour>
      <point x="197" y="0" type="line"/>
      <point x="197" y="586" type="line"/>
      <point x="177" y="566" type="line"/>
      <point x="197" y="568"/>
      <point x="239" y="569"/>
      <point x="260" y="569" type="curve" smooth="yes"/>
      <point x="339" y="569"/>
      <point x="367" y="531"/>
      <point x="367" y="465" type="curve" smooth="yes"/>
      <point x="367" y="408"/>
      <point x="334" y="364"/>
      <point x="269" y="364" type="curve" smooth="yes"/>
      <point x="131" y="364" type="line"/>
      <point x="131" y="254" type="line"/>
      <point x="259" y="254" type="line" smooth="yes"/>
      <point x="428" y="254"/>
      <point x="502" y="365"/>
      <point x="502" y="479" type="curve" smooth="yes"/>
      <point x="502" y="620"/>
      <point x="396" y="679"/>
      <point x="256" y="679" type="curve" smooth="yes"/>
      <point x="172" y="679"/>
      <point x="122" y="677"/>
      <point x="65" y="675" type="curve"/>
      <point x="65" y="0" type="line"/>
    </contour>
    <contour>
      <point x="348" y="71" type="line" smooth="yes"/>
      <point x="373" y="17"/>
      <point x="407" y="-14"/>
      <point x="468" y="-14" type="curve" smooth="yes"/>
      <point x="485" y="-14"/>
      <point x="506" y="-12"/>
      <point x="525" y="-7" type="curve"/>
      <point x="520" y="90" type="line"/>
      <point x="515" y="89"/>
      <point x="510" y="89"/>
      <point x="506" y="89" type="curve" smooth="yes"/>
      <point x="486" y="89"/>
      <point x="476" y="96"/>
      <point x="466" y="116" type="curve" smooth="yes"/>
      <point x="360" y="331" type="line"/>
      <point x="233" y="318" type="line"/>
    </contour>
    <contour>
      <point x="256" y="660" type="move" name="top"/>
    </contour>
    <contour>
      <point x="271" y="0" type="move" name="bottom"/>
    </contour>
  </outline>
</glyph>
<glyph name="asciicircum" format="1">
  <advance width="525"/>
  <unicode hex="005E"/>
  <outline>
    <contour>
      <point x="263" y="690" type="line"/>
      <point x="40" y="380" type="line"/>
      <point x="117" y="330" type="line"/>
      <point x="272" y="552" type="line"/>
      <point x="252" y="552" type="line"/>
      <point x="405" y="330" type="line"/>
      <point x="485" y="383" type="line"/>
    </contour>
  </outline>
</glyph>
<glyph name="d" format="1">
  <advance width="514"/>
  <unicode hex="0064"/>
  <outline>
    <contour>
      <point x="330" y="725" type="line"/>
      <point x="330" y="216" type="line" smooth="yes"/>
      <point x="330" y="134"/>
      <point x="298" y="88"/>
      <point x="246" y="88" type="curve" smooth="yes"/>
      <point x="188" y="88"/>
      <point x="162" y="161"/>
      <point x="162" y="248" type="curve" smooth="yes"/>
      <point x="162" y="336"/>
      <point x="191" y="410"/>
      <point x="267" y="410" type="curve" smooth="yes"/>
      <point x="286" y="410"/>
      <point x="311" y="406"/>
      <point x="336" y="396" type="curve"/>
      <point x="416" y="474" type="line"/>
      <point x="354" y="507"/>
      <point x="311" y="515"/>
      <point x="266" y="515" type="curve" smooth="yes"/>
      <point x="103" y="515"/>
      <point x="29" y="383"/>
      <point x="29" y="236" type="curve" smooth="yes"/>
      <point x="29" y="98"/>
      <point x="93" y="-15"/>
      <point x="213" y="-15" type="curve" smooth="yes"/>
      <point x="287" y="-15"/>
      <point x="350" y="33"/>
      <point x="375" y="130" type="curve"/>
      <point x="339" y="130" type="line"/>
      <point x="339" y="102" type="line" smooth="yes"/>
      <point x="339" y="-4"/>
      <point x="407" y="-30"/>
      <point x="496" y="-9" type="curve"/>
      <point x="491" y="86" type="line"/>
      <point x="469" y="83"/>
      <point x="460" y="93"/>
      <point x="460" y="114" type="curve" smooth="yes"/>
      <point x="460" y="725" type="line"/>
    </contour>
    <contour>
      <point x="259" y="250" type="move" name="center"/>
    </contour>
    <contour>
      <point x="491" y="500" type="move" name="topright"/>
    </contour>
  </outline>
</glyph>
<glyph name="k" format="1">
  <advance width="508"/>
  <unicode hex="006B"/>
  <outline>
    <contour>
      <point x="190" y="725" type="line"/>
      <point x="60" y="725" type="line"/>
      <point x="60" y="0" type="line"/>
      <point x="190" y="0" type="line"/>
    </contour>
    <contour>
      <point x="372" y="13"/>
      <point x="400" y="-15"/>
      <point x="457" y="-15" type="curve" smooth="yes"/>
      <point x="472" y="-15"/>
      <point x="489" y="-13"/>
      <point x="508" y="-9" type="curve"/>
      <point x="503" y="86" type="line"/>
      <point x="496" y="85"/>
      <point x="493" y="85"/>
      <point x="488" y="85" type="curve" smooth="yes"/>
      <point x="472" y="85"/>
      <point x="461" y="91"/>
      <point x="449" y="111" type="curve" smooth="yes"/>
      <point x="335" y="311" type="line"/>
      <point x="335" y="248" type="line"/>
      <point x="489" y="500" type="line"/>
      <point x="361" y="500" type="line"/>
      <point x="268" y="339" type="line"/>
      <point x="124" y="338" type="line"/>
      <point x="124" y="234" type="line"/>
      <point x="252" y="234" type="line"/>
      <point x="343" y="66" type="line" smooth="yes"/>
    </contour>
  </outline>
</glyph>
<glyph name="m" format="1">
  <advance width="793"/>
  <unicode hex="006D"/>
  <outline>
    <contour>
      <point x="731" y="339" type="line" smooth="yes"/>
      <point x="731" y="457"/>
      <point x="665" y="516"/>
      <point x="591" y="516" type="curve" smooth="yes"/>
      <point x="518" y="516"/>
      <point x="443" y="459"/>
      <point x="417" y="349" type="curve"/>
      <point x="461" y="349" type="line"/>
      <point x="457" y="460"/>
      <point x="393" y="516"/>
      <point x="318" y="516" type="curve" smooth="yes"/>
      <point x="247" y="516"/>
      <point x="169" y="459"/>
      <point x="143" y="350" type="curve"/>
      <point x="185" y="350" type="line"/>
      <point x="180" y="500" type="line"/>
      <point x="55" y="500" type="line"/>
      <point x="55" y="0" type="line"/>
      <point x="185" y="0" type="line"/>
      <point x="185" y="258" type="line" smooth="yes"/>
      <point x="185" y="369"/>
      <point x="228" y="413"/>
      <point x="274" y="413" type="curve" smooth="yes"/>
      <point x="309" y="413"/>
      <point x="331" y="383"/>
      <point x="331" y="327" type="curve" smooth="yes"/>
      <point x="331" y="0" type="line"/>
      <point x="461" y="0" type="line"/>
      <point x="461" y="258" type="line" smooth="yes"/>
      <point x="461" y="369"/>
      <point x="501" y="413"/>
      <point x="547" y="413" type="curve" smooth="yes"/>
      <point x="579" y="413"/>
      <point x="601" y="383"/>
      <point x="601" y="327" type="curve" smooth="yes"/>
      <point x="601" y="110" type="line" smooth="yes"/>
      <point x="601" y="0"/>
      <point x="674" y="-29"/>
      <point x="772" y="-9" type="curve"/>
      <point x="767" y="86" type="line"/>
      <point x="741" y="83"/>
      <point x="731" y="93"/>
      <point x="731" y="117" type="curve" smooth="yes"/>
    </contour>
  </outline>
</glyph>
<glyph name="n" format="1">
  <advance width="527"/>
  <unicode hex="006E"/>
  <outline>
    <contour>
      <point x="501" y="86" type="line"/>
      <point x="475" y="83"/>
      <point x="465" y="93"/>
      <point x="465" y="117" type="curve" smooth="yes"/>
      <point x="465" y="339" type="line" smooth="yes"/>
      <point x="465" y="456"/>
      <point x="400" y="515"/>
      <point x="319" y="515" type="curve" smooth="yes"/>
      <point x="242" y="515"/>
      <point x="172" y="460"/>
      <point x="145" y="350" type="curve"/>
      <point x="185" y="350" type="line"/>
      <point x="180" y="500" type="line"/>
      <point x="55" y="500" type="line"/>
      <point x="55" y="0" type="line"/>
      <point x="185" y="0" type="line"/>
      <point x="185" y="255" type="line" smooth="yes"/>
      <point x="185" y="368"/>
      <point x="230" y="412"/>
      <point x="276" y="412" type="curve" smooth="yes"/>
      <point x="314" y="412"/>
      <point x="335" y="377"/>
      <point x="335" y="326" type="curve" smooth="yes"/>
      <point x="335" y="110" type="line" smooth="yes"/>
      <point x="335" y="21"/>
      <point x="383" y="-14"/>
      <point x="453" y="-14" type="curve" smooth="yes"/>
      <point x="469" y="-14"/>
      <point x="487" y="-12"/>
      <point x="506" y="-8" type="curve"/>
    </contour>
    <contour>
      <point x="264" y="500" type="move" name="top"/>
    </contour>
    <contour>
      <point x="264" y="0" type="move" name="bottom"/>
    </contour>
  </outline>
</glyph>
<glyph name="p" format="1">
  <advance width="516"/>
  <unicode hex="0070"/>
  <outline>
    <contour>
      <point x="190" y="-200" type="line"/>
      <point x="191" y="284" type="line" smooth="yes"/>
      <point x="191" y="370"/>
      <point x="227" y="412"/>
      <point x="272" y="412" type="curve" smooth="yes"/>
      <point x="319" y="412"/>
      <point x="355" y="366"/>
      <point x="355" y="274" type="curve" smooth="yes"/>
      <point x="355" y="163"/>
      <point x="324" y="90"/>
      <point x="251" y="90" type="curve" smooth="yes"/>
      <point x="232" y="90"/>
      <point x="210" y="94"/>
      <point x="185" y="104" type="curve"/>
      <point x="85" y="33" type="line"/>
      <point x="147" y="0"/>
      <point x="197" y="-15"/>
      <point x="252" y="-15" type="curve" smooth="yes"/>
      <point x="396" y="-15"/>
      <point x="488" y="91"/>
      <point x="488" y="276" type="curve" smooth="yes"/>
      <point x="488" y="427"/>
      <point x="407" y="515"/>
      <point x="306" y="515" type="curve" smooth="yes"/>
      <point x="233" y="515"/>
      <point x="172" y="469"/>
      <point x="145" y="370" type="curve"/>
      <point x="189" y="370" type="line"/>
      <point x="181" y="500" type="line"/>
      <point x="61" y="500" type="line"/>
      <point x="60" y="-200" type="line"/>
    </contour>
  </outline>
</glyph>
<glyph name="r" format="1">
  <advance width="340"/>
  <unicode hex="0072"/>
  <outline>
    <contour>
      <point x="187" y="0" type="line"/>
      <point x="187" y="254" type="line" smooth="yes"/>
      <point x="187" y="344"/>
      <point x="226" y="394"/>
      <point x="281" y="394" type="curve" smooth="yes"/>
      <point x="296" y="394"/>
      <point x="312" y="390"/>
      <point x="329" y="383" type="curve"/>
      <point x="343" y="514" type="line"/>
      <point x="335" y="515"/>
      <point x="327" y="515"/>
      <point x="319" y="515" type="curve" smooth="yes"/>
      <point x="230" y="515"/>
      <point x="185" y="454"/>
      <point x="161" y="350" type="curve"/>
      <point x="187" y="350" type="line"/>
      <point x="179" y="505" type="line"/>
      <point x="57" y="505" type="line"/>
      <point x="57" y="0" type="line"/>
    </contour>
    <contour>
      <point x="141" y="500" type="move" name="top"/>
    </contour>
    <contour>
      <point x="171" y="0" type="move" name="bottom"/>
    </contour>
  </outline>
</glyph>
<glyph name="v" format="1">
  <advance width="481"/>
  <unicode hex="0076"/>
  <outline>
    <contour>
      <point x="222" y="113" type="line"/>
      <point x="261" y="113" type="line"/>
      <point x="134" y="500" type="line"/>
      <point x="1" y="500" type="line"/>
      <point x="175" y="0" type="line"/>
      <point x="304" y="0" type="line"/>
      <point x="479" y="500" type="line"/>
      <point x="352" y="500" type="line"/>
    </contour>
  </outline>
</glyph>
<glyph name="y" format="1">
  <advance width="460"/>
  <unicode hex="0079"/>
  <outline>
    <contour>
      <point x="340" y="500" type="line"/>
      <point x="220" y="87" type="line"/>
      <point x="259" y="87" type="line"/>
      <point x="129" y="500" type="line"/>
      <point x="-2" y="500" type="line"/>
      <point x="175" y="-1" type="line"/>
      <point x="148" y="-78"/>
      <point x="128" y="-110"/>
      <point x="86" y="-110" type="curve" smooth="yes"/>
      <point x="67" y="-110"/>
      <point x="43" y="-103"/>
      <point x="11" y="-91" type="curve"/>
      <point x="-27" y="-185" type="line"/>
      <point x="19" y="-205"/>
      <point x="59" y="-215"/>
      <point x="94" y="-215" type="curve" smooth="yes"/>
      <point x="179" y="-215"/>
      <point x="236" y="-158"/>
      <point x="274" y="-49" type="curve" smooth="yes"/>
      <point x="467" y="500" type="line"/>
    </contour>
    <contour>
      <point x="225" y="500" type="move" name="top"/>
    </contour>
  </outline>
</glyph>
<glyph name="ordmasculine" format="1">
  <advance width="398"/>
  <unicode hex="00BA"/>
  <outline>
    <contour>
      <point x="260" y="423"/>
      <point x="236" y="385"/>
      <point x="199" y="385" type="curve" smooth="yes"/>
      <point x="162" y="385"/>
      <point x="138" y="423"/>
      <point x="138" y="494" type="curve" smooth="yes"/>
      <point x="138" y="563"/>
      <point x="163" y="602"/>
      <point x="200" y="602" type="curve" smooth="yes"/>
      <point x="236" y="602"/>
      <point x="260" y="564"/>
      <point x="260" y="492" type="curve" smooth="yes"/>
    </contour>
    <contour>
      <point x="373" y="615"/>
      <point x="317" y="690"/>
      <point x="202" y="690" type="curve" smooth="yes"/>
      <point x="87" y="690"/>
      <point x="25" y="614"/>
      <point x="25" y="492" type="curve" smooth="yes"/>
      <point x="25" y="374"/>
      <point x="81" y="297"/>
      <point x="195" y="297" type="curve" smooth="yes"/>
      <point x="311" y="297"/>
      <point x="373" y="369"/>
      <point x="373" y="494" type="curve" smooth="yes"/>
    </contour>
  </outline>
</glyph>
<glyph name="imacron" format="1">
  <advance width="245"/>
  <unicode hex="012B"/>
  <outline>
    <contour>
      <point x="1" y="694" type="line"/>
      <point x="1" y="594" type="line"/>
      <point x="244" y="594" type="line"/>
      <point x="244" y="694" type="line"/>
    </contour>
    <component base="dotlessi"/>
  </outline>
</glyph>
<glyph name="caron" format="1">
  <advance width="453"/>
  <unicode hex="02C7"/>
  <outline>
    <contour>
      <point x="226" y="552" type="line"/>
      <point x="393" y="682" type="line"/>
      <point x="343" y="745" type="line"/>
      <point x="222" y="659" type="line"/>
      <point x="238" y="659" type="line"/>
      <point x="115" y="747" type="line"/>
      <point x="60" y="682" type="line"/>
    </contour>
    <contour>
      <point x="227" y="500" type="move" name="_top"/>
    </contour>
  </outline>
</glyph>
<glyph name="pi" format="1">
  <advance width="596"/>
  <unicode hex="03C0"/>
  <outline>
    <contour>
      <point x="225" y="500" type="line"/>
      <point x="95" y="500" type="line"/>
      <point x="95" y="0" type="line"/>
      <point x="225" y="0" type="line"/>
    </contour>
    <contour>
      <point x="576" y="405" type="line"/>
      <point x="576" y="500" type="line"/>
      <point x="20" y="500" type="line"/>
      <point x="20" y="405" type="line"/>
    </contour>
    <contour>
      <point x="371" y="34"/>
      <point x="420" y="-15"/>
      <point x="508" y="-15" type="curve" smooth="yes"/>
      <point x="533" y="-15"/>
      <point x="566" y="-10"/>
      <point x="596" y="-2" type="curve"/>
      <point x="573" y="95" type="line"/>
      <point x="561" y="92"/>
      <point x="550" y="90"/>
      <point x="541" y="90" type="curve" smooth="yes"/>
      <point x="514" y="90"/>
      <point x="501" y="105"/>
      <point x="501" y="145" type="curve" smooth="yes"/>
      <point x="501" y="500" type="line"/>
      <point x="371" y="500" type="line"/>
      <point x="371" y="133" type="line" smooth="yes"/>
    </contour>
  </outline>
</glyph>
<glyph name="bullet" format="1">
  <advance width="346"/>
  <unicode hex="2022"/>
  <outline>
    <contour>
      <point x="246" y="162"/>
      <point x="301" y="221"/>
      <point x="301" y="294" type="curve" smooth="yes"/>
      <point x="301" y="367"/>
      <point x="246" y="426"/>
      <point x="173" y="426" type="curve" smooth="yes"/>
      <point x="100" y="426"/>
      <point x="45" y="367"/>
      <point x="45" y="294" type="curve" smooth="yes"/>
      <point x="45" y="221"/>
      <point x="100" y="162"/>
      <point x="173" y="162" type="curve" smooth="yes"/>
    </contour>
  </outline>
</glyph>
<glyph name="fraction" format="1">
  <advance width="576"/>
  <unicode hex="2044"/>
  <outline>
    <contour>
      <point x="141" y="-11" type="line"/>
      <point x="20" y="-10" type="line"/>
      <point x="437" y="735" type="line"/>
      <point x="556" y="735" type="line"/>
    </contour>
  </outline>
</glyph>
<glyph name="uni2113" format="1">
  <advance width="451"/>
  <unicode hex="2113"/>
  <outline>
    <contour>
      <point x="314" y="260"/>
      <point x="430" y="461"/>
      <point x="430" y="608" type="curve" smooth="yes"/>
      <point x="430" y="701"/>
      <point x="378" y="765"/>
      <point x="278" y="765" type="curve" smooth="yes"/>
      <point x="174" y="765"/>
      <point x="115" y="686"/>
      <point x="116" y="552" type="curve" smooth="yes"/>
      <point x="118" y="148" type="line" smooth="yes"/>
      <point x="119" y="44"/>
      <point x="197" y="-15"/>
      <point x="283" y="-15" type="curve" smooth="yes"/>
      <point x="341" y="-15"/>
      <point x="403" y="11"/>
      <point x="447" y="70" type="curve"/>
      <point x="388" y="138" type="line"/>
      <point x="359" y="109"/>
      <point x="330" y="95"/>
      <point x="306" y="95" type="curve" smooth="yes"/>
      <point x="272" y="95"/>
      <point x="248" y="123"/>
      <point x="248" y="179" type="curve" smooth="yes"/>
      <point x="246" y="569" type="line" smooth="yes"/>
      <point x="246" y="627"/>
      <point x="259" y="653"/>
      <point x="287" y="653" type="curve" smooth="yes"/>
      <point x="310" y="653"/>
      <point x="322" y="634"/>
      <point x="322" y="599" type="curve" smooth="yes"/>
      <point x="322" y="501"/>
      <point x="228" y="324"/>
      <point x="15" y="188" type="curve"/>
      <point x="62" y="105" type="line"/>
    </contour>
  </outline>
</glyph>
